<svg width="20" height="20" viewBox="0 0 20 20" fill="none" xmlns="http://www.w3.org/2000/svg">
<path d="M2.95 3.66667C3 4.40833 3.125 5.13333 3.325 5.825L2.325 6.825C1.98333 5.825 1.76667 4.76667 1.69167 3.66667H2.95ZM11.1667 13.6833C11.875 13.8833 12.6 14.0083 13.3333 14.0583V15.3C12.2333 15.225 11.175 15.0083 10.1667 14.675L11.1667 13.6833ZM3.75 2H0.833333C0.375 2 0 2.375 0 2.83333C0 10.6583 6.34167 17 14.1667 17C14.625 17 15 16.625 15 16.1667V13.2583C15 12.8 14.625 12.425 14.1667 12.425C13.1333 12.425 12.125 12.2583 11.1917 11.95C11.1083 11.9167 11.0167 11.9083 10.9333 11.9083C10.7167 11.9083 10.5083 11.9917 10.3417 12.15L8.50833 13.9833C6.15 12.775 4.21667 10.85 3.01667 8.49167L4.85 6.65833C5.08333 6.425 5.15 6.1 5.05833 5.80833C4.75 4.875 4.58333 3.875 4.58333 2.83333C4.58333 2.375 4.20833 2 3.75 2Z" fill="#323232"/>
</svg>
