<svg width="15" height="15" viewBox="0 0 15 15" fill="none" xmlns="http://www.w3.org/2000/svg">
<path d="M14.5833 0L14.45 0.025L10 1.75L5 0L0.3 1.58333C0.125 1.64167 0 1.79167 0 1.98333V14.5833C0 14.8167 0.183333 15 0.416667 15L0.55 14.975L5 13.25L10 15L14.7 13.4167C14.875 13.3583 15 13.2083 15 13.0167V0.416667C15 0.183333 14.8167 0 14.5833 0ZM5.83333 2.05833L9.16667 3.225V12.9417L5.83333 11.775V2.05833ZM1.66667 2.88333L4.16667 2.04167V11.7917L1.66667 12.7583V2.88333ZM13.3333 12.1167L10.8333 12.9583V3.21667L13.3333 2.25V12.1167Z" fill="#323232"/>
</svg>
